<svg width="15" height="14" viewBox="0 0 15 14" fill="none" xmlns="http://www.w3.org/2000/svg">
<path d="M9.06797 4.90755H13.3346C13.6883 4.90755 14.0274 5.04803 14.2774 5.29808C14.5275 5.54812 14.668 5.88726 14.668 6.24089V7.64355C14.6681 7.81779 14.6342 7.99038 14.568 8.15155L12.504 13.1609C12.4538 13.2831 12.3684 13.3876 12.2588 13.4611C12.1491 13.5347 12.02 13.5741 11.888 13.5742L0.667967 13.5742C0.491156 13.5742 0.321586 13.504 0.196562 13.379C0.0715378 13.2539 0.00130037 13.0844 0.00130037 12.9076L0.00130037 6.24089C0.00130037 6.06407 0.0715378 5.89451 0.196562 5.76948C0.321586 5.64446 0.491156 5.57422 0.667967 5.57422H2.9893C3.09603 5.57425 3.20121 5.54865 3.29599 5.49957C3.39077 5.4505 3.47238 5.37939 3.53397 5.29222L7.1693 0.141552C7.21526 0.0764268 7.28303 0.0299254 7.36033 0.0104786C7.43762 -0.00896827 7.51933 -7.33333e-05 7.59063 0.0355513L8.79997 0.640885C9.1403 0.810994 9.41219 1.09243 9.57046 1.43843C9.72872 1.78443 9.76384 2.17417 9.66997 2.54288L9.06797 4.90755ZM4.0013 6.63289V12.2409L11.4413 12.2409L13.3346 7.64355V6.24089L9.06797 6.24089C8.8649 6.24086 8.66452 6.19444 8.48212 6.10519C8.29972 6.01594 8.14012 5.8862 8.01548 5.72588C7.89085 5.56555 7.80449 5.37888 7.76298 5.1801C7.72147 4.98132 7.72591 4.77569 7.77597 4.57889L8.37797 2.21355C8.39681 2.13977 8.38982 2.06176 8.35816 1.9925C8.32651 1.92325 8.27209 1.86692 8.20397 1.83289L7.7633 1.61289L4.6233 6.06088C4.45663 6.29688 4.2433 6.49022 4.0013 6.63289V6.63289ZM2.66797 6.90755H1.33463V12.2409H2.66797V6.90755Z" fill="#A9CC52"/>
</svg>
