<svg width="15" height="14" viewBox="0 0 15 14" fill="none" xmlns="http://www.w3.org/2000/svg">
<path d="M0.666818 5.36232H2.66727V13.57H0.666818C0.489967 13.57 0.320359 13.4979 0.195306 13.3697C0.0702538 13.2414 0 13.0674 0 12.886V6.04629C0 5.86489 0.0702538 5.69092 0.195306 5.56265C0.320359 5.43438 0.489967 5.36232 0.666818 5.36232V5.36232ZM4.19629 4.47794L8.46392 0.100513C8.52064 0.0421664 8.59599 0.00678644 8.67612 0.000880174C8.75624 -0.00502609 8.83575 0.0189385 8.90002 0.0683667L9.46882 0.50611C9.62679 0.627751 9.74611 0.794646 9.81173 0.98575C9.87736 1.17685 9.88635 1.38361 9.83757 1.57995L9.06873 4.67835H13.3364C13.6901 4.67835 14.0293 4.82247 14.2794 5.07901C14.5295 5.33555 14.67 5.68349 14.67 6.04629V7.48537C14.6702 7.66414 14.6362 7.8412 14.57 8.00656L12.5062 13.1466C12.4558 13.2719 12.3703 13.3791 12.2605 13.4545C12.1507 13.5298 12.0215 13.5701 11.8894 13.57H4.66773C4.49088 13.57 4.32127 13.4979 4.19622 13.3697C4.07116 13.2414 4.00091 13.0674 4.00091 12.886V4.96151C4.00095 4.78013 4.07123 4.60618 4.19629 4.47794Z" fill="#A9CC52"/>
</svg>
